<?xml version="1.0" standalone="no"?>
<!DOCTYPE svg PUBLIC "-//W3C//DTD SVG 20010904//EN"
 "http://www.w3.org/TR/2001/REC-SVG-20010904/DTD/svg10.dtd">
<svg version="1.0" xmlns="http://www.w3.org/2000/svg"
 width="2500.000000pt" height="1123.000000pt" viewBox="0 0 2500.000000 1123.000000"
 preserveAspectRatio="xMidYMid meet">

<g transform="translate(0.000000,1123.000000) scale(0.100000,-0.100000)"
fill="#000000" stroke="none">
<path d="M8417 11219 c-58 -8 -81 -18 -173 -75 -118 -74 -206 -166 -254 -267
-32 -67 -47 -87 -66 -87 -7 0 -41 24 -74 54 -65 58 -114 76 -208 76 -81 0
-328 -48 -521 -101 -231 -64 -315 -93 -465 -164 -66 -31 -181 -77 -255 -102
-78 -26 -191 -75 -266 -114 -71 -37 -197 -99 -280 -137 -82 -38 -175 -84 -205
-102 -30 -18 -163 -92 -295 -165 -475 -262 -1231 -737 -1508 -947 -104 -80
-746 -696 -839 -805 -157 -188 -237 -305 -328 -483 -103 -205 -132 -285 -155
-435 -35 -223 -3 -463 86 -645 75 -153 315 -369 586 -531 237 -141 644 -336
760 -364 39 -9 79 -25 88 -35 10 -11 40 -27 69 -36 28 -9 119 -52 201 -95 83
-42 188 -89 234 -103 46 -15 97 -36 114 -48 16 -11 88 -47 159 -79 72 -32 156
-76 187 -97 31 -20 104 -66 163 -101 58 -35 135 -88 170 -118 35 -30 89 -77
120 -104 61 -53 142 -148 230 -270 45 -64 57 -89 68 -147 11 -62 11 -75 -4
-111 -9 -23 -16 -62 -16 -87 0 -130 -78 -289 -301 -617 -311 -456 -351 -504
-915 -1097 -287 -302 -366 -380 -539 -531 -72 -63 -187 -164 -255 -226 -69
-61 -259 -222 -424 -357 -268 -220 -425 -335 -800 -589 -125 -85 -308 -186
-491 -271 -223 -103 -345 -127 -645 -129 -229 -1 -249 5 -408 124 -97 73 -116
92 -141 142 -42 81 -65 194 -58 276 11 120 168 641 246 815 17 37 57 112 88
164 31 53 80 146 108 207 29 60 89 173 135 250 45 77 113 192 150 256 36 64
112 179 166 255 55 77 108 151 117 166 9 14 25 29 36 33 10 3 36 31 56 63 36
53 216 263 378 441 37 41 87 86 112 100 24 14 82 59 127 99 46 40 135 105 197
145 143 89 156 108 146 207 -7 65 -9 71 -41 90 -75 47 -253 47 -395 0 -35 -12
-150 -63 -255 -114 -156 -76 -196 -100 -215 -128 -13 -19 -55 -62 -94 -95
-152 -132 -477 -482 -600 -648 -232 -313 -469 -664 -523 -775 -30 -63 -74
-136 -97 -162 -28 -31 -57 -83 -88 -160 -26 -62 -88 -189 -138 -283 -138 -262
-239 -486 -249 -555 -5 -33 -20 -88 -34 -123 -41 -104 -57 -174 -65 -302 -5
-66 -13 -133 -20 -148 -16 -41 -14 -74 13 -206 55 -265 147 -383 441 -566 102
-63 119 -70 235 -96 207 -48 272 -53 485 -41 116 6 209 17 240 26 28 9 109 29
180 45 104 23 171 47 340 120 115 50 222 91 237 91 14 0 55 15 90 33 35 19
173 91 308 162 281 146 640 382 845 554 66 55 188 152 270 214 83 63 199 160
258 215 59 56 129 116 155 133 26 18 94 78 152 134 58 55 166 148 240 205 102
79 228 198 510 480 397 396 555 571 852 937 221 272 239 296 336 448 151 238
228 408 302 662 21 74 45 103 84 103 10 0 44 12 75 27 31 14 89 34 130 44 98
25 160 61 248 143 96 90 137 143 320 421 234 356 398 595 513 748 58 76 136
183 173 236 37 53 75 102 85 109 15 12 18 7 29 -45 22 -106 16 -223 -22 -408
-20 -93 -45 -189 -56 -212 -11 -23 -18 -46 -15 -51 9 -15 -44 -242 -76 -320
-21 -55 -31 -100 -35 -157 -3 -59 -11 -92 -29 -128 -14 -26 -34 -91 -45 -145
-11 -53 -24 -114 -30 -135 -5 -21 -14 -81 -18 -132 -7 -79 -12 -101 -35 -134
l-28 -40 53 -87 c58 -97 143 -188 213 -229 99 -58 237 -41 481 57 83 33 170
71 195 83 25 12 72 30 104 40 139 40 270 129 453 308 l131 129 52 -36 c61 -42
91 -51 231 -72 l106 -16 61 31 c34 17 90 35 124 40 84 12 450 140 512 180 32
20 63 31 86 31 21 0 50 10 70 24 19 12 86 51 148 85 213 115 379 244 572 440
63 64 142 136 175 158 33 23 121 102 195 177 124 125 160 153 160 126 0 -6
-20 -63 -45 -128 -65 -170 -59 -248 29 -332 36 -34 40 -35 125 -38 125 -5 211
25 496 172 39 19 85 53 103 73 19 21 81 134 138 252 l104 213 99 102 c106 109
150 180 177 289 9 34 27 87 41 117 14 30 42 99 64 153 61 153 112 246 181 333
34 44 87 120 116 170 99 168 333 438 576 664 165 155 240 205 307 205 43 0 51
-4 115 -65 38 -36 86 -74 107 -85 20 -11 37 -24 37 -30 0 -5 -9 -57 -21 -115
-11 -58 -24 -152 -29 -210 -5 -66 -36 -236 -84 -460 -43 -199 -93 -463 -113
-600 -34 -239 -35 -246 -19 -297 19 -58 92 -172 158 -245 38 -43 53 -50 133
-74 126 -37 250 -43 332 -15 77 26 502 236 569 281 59 40 196 178 306 309 102
123 120 148 208 306 39 72 101 175 138 229 280 424 499 784 631 1040 77 150
149 280 159 290 11 9 27 36 37 59 10 23 65 140 123 261 93 191 107 226 110
280 6 97 -41 180 -123 217 -83 38 -286 19 -446 -40 -48 -18 -69 -37 -153 -129
-96 -105 -100 -111 -228 -367 -128 -256 -285 -557 -420 -807 -83 -154 -187
-313 -278 -428 -38 -47 -79 -111 -93 -142 -27 -60 -309 -495 -335 -516 -9 -6
-22 -12 -30 -12 -31 0 12 240 124 680 74 291 100 379 255 859 95 295 104 381
38 381 -9 0 -37 18 -62 41 -26 22 -60 44 -77 49 -29 8 -250 4 -317 -6 -18 -3
-56 -23 -85 -44 -66 -51 -99 -56 -203 -36 -47 9 -123 23 -170 32 -125 24 -202
16 -375 -41 -207 -68 -244 -87 -477 -244 -223 -151 -259 -178 -381 -287 -75
-68 -87 -74 -249 -138 -162 -63 -175 -71 -266 -146 -64 -53 -113 -106 -150
-158 -34 -49 -68 -85 -91 -97 -21 -11 -75 -66 -124 -125 -48 -58 -134 -154
-192 -215 -58 -60 -148 -157 -199 -215 -413 -464 -1165 -1229 -1399 -1424
-349 -289 -732 -485 -806 -410 -30 30 -24 139 10 175 23 24 24 28 13 76 -16
68 -3 115 69 261 92 185 157 244 312 281 106 26 276 109 394 193 49 34 140
113 201 173 167 165 554 573 689 725 66 74 143 160 172 190 29 30 102 135 163
232 60 97 128 200 150 228 62 78 106 164 145 281 41 122 44 149 17 193 -45 72
-121 105 -271 117 -58 4 -131 11 -163 15 -44 5 -72 2 -120 -14 -34 -11 -87
-23 -117 -27 -77 -10 -115 -29 -270 -132 -181 -122 -258 -191 -501 -449 -455
-484 -681 -740 -799 -904 -48 -67 -147 -163 -245 -239 -33 -25 -117 -103 -187
-172 -102 -101 -134 -140 -158 -190 -35 -75 -37 -101 -10 -154 34 -66 27 -95
-54 -244 -41 -75 -84 -167 -96 -206 -12 -38 -39 -108 -61 -155 -54 -120 -76
-187 -84 -265 -9 -81 -29 -107 -149 -198 -45 -33 -137 -106 -206 -162 -208
-169 -209 -169 -191 -19 6 55 20 128 31 164 10 36 28 115 39 175 11 61 45 198
75 305 123 436 137 495 161 649 39 246 65 495 65 611 -1 221 -54 384 -151 462
-69 56 -361 87 -480 52 -84 -25 -255 -117 -349 -188 -59 -45 -155 -140 -316
-318 -273 -298 -285 -313 -377 -443 -39 -55 -119 -163 -177 -240 -59 -77 -170
-230 -247 -339 -77 -110 -145 -202 -151 -204 -21 -7 -13 97 22 299 19 107 42
244 52 304 13 85 28 136 65 222 47 108 59 145 149 433 23 74 92 266 152 425
61 160 128 344 149 411 21 66 54 155 74 197 19 42 42 105 51 139 8 35 33 104
54 153 21 50 43 110 50 135 21 84 71 215 120 315 27 55 61 144 75 197 38 142
61 205 180 493 121 294 286 658 324 715 14 21 45 66 69 99 24 34 54 92 68 129
14 37 51 117 83 177 32 61 100 198 151 305 102 214 144 286 197 341 32 34 35
41 35 104 0 83 -14 99 -78 89 -33 -5 -48 -2 -71 14 -52 38 -171 49 -316 31z
m-507 -469 c0 -5 -5 -10 -11 -10 -5 0 -7 5 -4 10 3 6 8 10 11 10 2 0 4 -4 4
-10z m-45 -80 c3 -5 -6 -25 -20 -44 -31 -40 -65 -125 -65 -161 0 -13 -45 -129
-101 -257 -131 -302 -400 -977 -474 -1188 -32 -91 -97 -258 -146 -371 -48
-113 -98 -246 -112 -295 -13 -49 -45 -138 -69 -199 -25 -60 -60 -156 -77 -213
-18 -57 -47 -139 -66 -182 -26 -59 -35 -92 -35 -134 0 -50 -4 -60 -36 -96 -25
-27 -39 -55 -45 -87 -5 -25 -31 -92 -58 -149 -28 -56 -63 -140 -80 -186 -16
-46 -81 -224 -145 -396 -143 -387 -156 -434 -156 -544 0 -60 -4 -89 -14 -97
-7 -6 -16 -39 -20 -73 -3 -36 -16 -79 -31 -106 -18 -32 -25 -60 -25 -101 0
-38 -9 -76 -26 -116 -35 -80 -39 -108 -20 -124 20 -16 20 -35 2 -50 -21 -18
-64 2 -296 141 -254 153 -671 363 -1005 507 -577 250 -976 480 -1170 675 -111
113 -162 190 -202 311 -24 71 -27 96 -28 220 0 128 2 147 28 220 15 44 49 116
74 160 64 111 247 364 333 460 110 122 333 348 408 412 37 32 104 93 150 135
45 43 123 105 173 139 49 34 139 108 200 165 110 103 228 187 511 363 79 48
172 103 208 121 36 18 92 51 125 74 88 60 803 445 850 457 49 14 96 37 201
101 54 33 96 51 125 54 24 3 89 27 144 54 130 64 388 171 540 224 128 45 157
59 239 110 50 32 154 74 188 75 9 1 20 -3 23 -9z m3653 -2997 c12 -21 -1 -60
-45 -134 -78 -135 -162 -231 -426 -491 -284 -279 -347 -329 -388 -308 -50 27
-2 127 133 275 40 44 86 100 103 123 16 24 62 78 103 120 40 43 98 107 128
144 29 37 77 86 106 110 28 24 72 62 97 84 99 89 167 117 189 77z"/>
<path d="M17975 10335 c-139 -32 -191 -62 -337 -193 -141 -126 -136 -109 -140
-451 l-2 -284 64 -60 65 -59 80 5 c112 8 166 27 246 88 38 29 138 90 222 135
178 95 187 105 187 222 0 63 6 86 41 168 33 78 40 108 40 159 0 74 -27 140
-78 191 -46 47 -84 64 -172 80 -94 16 -139 16 -216 -1z"/>
<path d="M24843 8973 c-17 -9 -34 -24 -36 -34 -3 -12 -14 -19 -31 -19 -19 0
-31 -10 -52 -46 -23 -40 -26 -52 -20 -101 8 -71 13 -78 38 -56 35 31 51 73 45
119 -3 27 0 50 8 61 12 16 17 14 59 -25 25 -23 50 -42 56 -42 6 0 28 12 50 26
38 25 40 29 40 78 l0 51 -19 -29 c-26 -39 -46 -49 -71 -36 -13 7 -20 21 -20
40 0 34 -3 35 -47 13z"/>
<path d="M19410 8890 c-63 -8 -286 -82 -353 -116 -32 -17 -153 -96 -236 -153
-36 -25 -54 -31 -98 -31 -43 0 -77 -10 -151 -42 -91 -40 -103 -49 -197 -146
-55 -57 -108 -117 -118 -132 -43 -68 -259 -558 -302 -685 -26 -77 -67 -183
-90 -235 -24 -52 -69 -169 -101 -260 -31 -91 -65 -184 -76 -208 -19 -39 -51
-72 -70 -72 -20 0 -30 85 -26 226 5 130 10 166 41 284 20 74 47 206 61 292 14
86 39 197 56 247 37 111 74 371 64 451 -11 95 -41 174 -83 221 -42 48 -148
109 -189 109 -13 0 -57 -18 -96 -39 -39 -21 -105 -53 -146 -70 -42 -17 -92
-44 -112 -61 -31 -25 -37 -39 -47 -93 -14 -84 -55 -201 -131 -377 -76 -178
-149 -396 -184 -555 -15 -66 -36 -151 -47 -190 -11 -38 -31 -133 -45 -210 -13
-77 -31 -160 -40 -185 -37 -108 -27 -314 21 -418 30 -65 104 -139 176 -174 45
-22 72 -27 165 -31 l111 -5 74 53 c41 29 124 80 184 114 61 33 137 80 170 104
l60 45 50 -54 c47 -50 54 -55 115 -64 120 -18 147 -14 286 44 170 71 330 158
377 204 56 54 93 139 126 290 49 218 151 544 201 642 11 21 39 55 64 76 37 32
55 62 105 172 33 73 74 155 91 182 43 66 146 161 210 193 l53 26 37 -29 c32
-25 42 -45 75 -142 20 -62 55 -158 77 -213 22 -55 63 -168 92 -251 29 -82 64
-171 79 -197 124 -211 385 -435 629 -540 194 -83 338 -110 603 -110 151 -1
209 4 355 27 165 26 221 41 515 135 147 47 442 172 591 251 60 32 151 77 202
99 103 44 358 180 472 251 41 26 134 77 205 114 160 82 435 272 465 321 12 20
42 49 66 66 24 16 44 36 44 44 0 19 46 53 89 65 20 5 77 42 126 83 81 65 116
108 138 171 3 7 13 3 28 -10 20 -17 34 -20 77 -16 51 4 54 6 135 93 60 64 94
92 125 103 45 16 119 63 142 90 11 14 10 20 -9 39 -11 13 -21 32 -21 43 0 10
-5 36 -11 57 -11 42 -35 49 -63 19 -9 -11 -34 -24 -55 -31 -38 -11 -101 -69
-101 -93 0 -6 -9 -3 -19 6 -18 16 -22 16 -90 -19 -39 -19 -101 -53 -136 -75
-36 -22 -121 -68 -188 -101 -129 -65 -235 -130 -303 -185 -23 -18 -100 -57
-170 -86 -126 -50 -491 -231 -825 -409 -91 -48 -215 -108 -275 -134 -60 -26
-136 -61 -169 -79 -33 -19 -107 -48 -164 -65 -57 -18 -143 -53 -192 -77 -56
-29 -117 -50 -166 -60 -43 -8 -119 -28 -170 -44 -145 -47 -240 -55 -457 -41
-209 13 -251 24 -357 93 -162 104 -329 334 -373 513 -8 33 -20 107 -26 165 -9
84 -16 112 -36 140 -13 19 -40 85 -59 146 -44 140 -122 269 -225 375 -70 72
-80 78 -160 104 -76 25 -102 28 -245 31 -88 1 -189 -1 -225 -6z m5194 -152 c3
-16 2 -28 -3 -28 -10 0 -21 47 -13 55 7 7 8 5 16 -27z m-84 -128 c0 -39 -13
-54 -23 -27 -7 18 3 67 14 67 5 0 9 -18 9 -40z"/>
</g>
</svg>
